<svg width="168" height="29" viewBox="0 0 168 29" fill="none" xmlns="http://www.w3.org/2000/svg">
<g clip-path="url(#clip0_106_736)">
<path d="M28.442 14.445V14.389C28.414 6.466 22.032 0 14.221 0C6.41 0 0 6.466 0 14.445C0 22.425 6.381 28.878 14.221 28.878C17.8185 28.8804 21.2785 27.4957 23.881 25.012C24.1373 24.7778 24.2901 24.4514 24.3058 24.1045C24.3215 23.7577 24.1987 23.4188 23.9645 23.1625C23.7303 22.9062 23.4039 22.7534 23.057 22.7377C22.7102 22.722 22.3713 22.8448 22.115 23.079L22.087 23.107C20.9641 24.1745 19.637 25.0041 18.1855 25.546C16.734 26.0878 15.1879 26.3308 13.6401 26.2603C12.0924 26.1898 10.5748 25.8072 9.17858 25.1356C7.78234 24.464 6.53621 23.5172 5.515 22.352L11.59 12.61V17.118C11.59 19.272 12.43 19.973 13.136 20.169C13.842 20.365 14.901 20.223 16.048 18.404L19.381 12.992C19.47 12.834 19.573 12.684 19.687 12.543V15.288C19.687 17.303 20.499 18.927 21.898 19.71C22.5438 20.0616 23.2728 20.2318 24.0075 20.2024C24.7423 20.173 25.4554 19.9451 26.071 19.543C27.687 18.494 28.555 16.657 28.442 14.445ZM24.746 17.28C24.5216 17.4346 24.2599 17.5264 23.9881 17.5459C23.7163 17.5654 23.4442 17.5119 23.2 17.391C22.64 17.056 22.303 16.301 22.303 15.265V12.092C22.303 10.582 21.715 9.489 20.708 9.211C18.999 8.695 17.713 10.806 17.236 11.59L14.221 16.432V10.47C14.193 9.099 13.744 8.287 12.904 8.034C12.344 7.867 11.504 7.952 10.693 9.184L3.946 19.989C3.04842 18.2787 2.57804 16.3765 2.575 14.445C2.575 7.922 7.809 2.631 14.221 2.631C20.633 2.631 25.867 7.922 25.867 14.445V14.502C25.934 15.76 25.53 16.77 24.747 17.272L24.746 17.28ZM48.263 9.518C48.4485 9.63682 48.6035 9.79754 48.7155 9.9872C48.8275 10.1769 48.8935 10.3902 48.908 10.61C48.9061 10.9313 48.7795 11.2394 48.5549 11.4692C48.3303 11.699 48.0252 11.8327 47.704 11.842C47.5516 11.8304 47.4011 11.8019 47.255 11.757C46.4707 11.1687 45.5193 10.8457 44.539 10.835C42.16 10.835 40.537 12.765 40.537 15.172C40.537 17.579 42.189 19.484 44.539 19.484C45.6686 19.4824 46.7531 19.0404 47.562 18.252C47.768 18.107 48.012 18.029 48.263 18.028C48.4639 18.0258 48.6618 18.0769 48.8364 18.1763C49.0111 18.2757 49.1562 18.4196 49.2569 18.5935C49.3576 18.7674 49.4103 18.9649 49.4096 19.1658C49.4089 19.3667 49.3549 19.5638 49.253 19.737C49.156 19.907 49.018 20.052 48.851 20.157C48.0314 20.8385 47.0599 21.3128 46.0185 21.5401C44.9771 21.7673 43.8964 21.7408 42.8674 21.4628C41.8384 21.1847 40.8913 20.6633 40.1061 19.9424C39.321 19.2216 38.7206 18.3225 38.3558 17.3209C37.991 16.3194 37.8724 15.2448 38.01 14.1879C38.1476 13.1309 38.5373 12.1225 39.1464 11.2477C39.7555 10.373 40.566 9.65754 41.5096 9.16175C42.4531 8.66595 43.5021 8.40435 44.568 8.399C45.886 8.379 47.178 8.769 48.263 9.518ZM54.925 12.309C53.6691 12.3037 52.4624 12.7964 51.5692 13.6793C50.676 14.5622 50.1693 15.7631 50.16 17.019C50.1678 18.2818 50.6708 19.4911 51.561 20.3869C52.4511 21.2827 53.6573 21.7933 54.92 21.809C57.384 21.809 59.484 19.597 59.484 17.019C59.484 14.443 57.417 12.309 54.925 12.309ZM54.897 19.476C53.722 19.476 52.742 18.412 52.742 17.04C52.742 15.613 53.722 14.744 54.897 14.744C55.99 14.744 56.912 15.641 56.912 17.04C56.912 18.44 55.99 19.484 54.897 19.484V19.476ZM61.056 20.352V13.744C61.0528 13.5727 61.0838 13.4024 61.1471 13.2432C61.2105 13.084 61.3049 12.939 61.4249 12.8166C61.5449 12.6943 61.6881 12.5971 61.846 12.5307C62.004 12.4643 62.1736 12.4301 62.345 12.43C62.6898 12.4345 63.0189 12.5752 63.2603 12.8213C63.5018 13.0675 63.6361 13.3992 63.634 13.744V20.352C63.6364 20.697 63.5022 21.0289 63.2607 21.2753C63.0192 21.5217 62.69 21.6625 62.345 21.667C62.0018 21.6569 61.6759 21.5144 61.4356 21.2692C61.1952 21.024 61.0592 20.6953 61.056 20.352ZM60.86 9.938C60.8544 9.73853 60.8886 9.53993 60.9604 9.35378C61.0323 9.16762 61.1405 8.99762 61.2787 8.85366C61.4169 8.7097 61.5823 8.59466 61.7654 8.51523C61.9484 8.4358 62.1455 8.39357 62.345 8.391C62.5458 8.39335 62.7441 8.43524 62.9286 8.51427C63.1132 8.5933 63.2803 8.70792 63.4206 8.85159C63.5608 8.99526 63.6714 9.16516 63.7459 9.35157C63.8204 9.53798 63.8575 9.73725 63.855 9.938C63.855 10.335 63.6973 10.7158 63.4165 10.9965C63.1358 11.2773 62.755 11.435 62.358 11.435C61.961 11.435 61.5802 11.2773 61.2995 10.9965C61.0187 10.7158 60.86 10.335 60.86 9.938ZM68.559 16.77V20.352C68.559 20.6939 68.4232 21.0217 68.1815 21.2635C67.9397 21.5052 67.6119 21.641 67.27 21.641C66.9281 21.641 66.6003 21.5052 66.3585 21.2635C66.1168 21.0217 65.981 20.6939 65.981 20.352V13.437C65.981 13.1734 66.0857 12.9205 66.2721 12.7341C66.4585 12.5477 66.7114 12.443 66.975 12.443C67.2386 12.443 67.4915 12.5477 67.6779 12.7341C67.8643 12.9205 67.969 13.1734 67.969 13.437C68.3363 13.0616 68.7787 12.7679 69.2672 12.5749C69.7556 12.3819 70.2793 12.294 70.804 12.317C73.381 12.317 74.528 14.249 74.528 16.461V20.352C74.528 20.6939 74.3922 21.0217 74.1505 21.2635C73.9087 21.5052 73.5809 21.641 73.239 21.641C72.8971 21.641 72.5693 21.5052 72.3275 21.2635C72.0858 21.0217 71.95 20.6939 71.95 20.352V16.77C71.95 15.649 71.811 14.708 70.187 14.708C69.041 14.708 68.564 15.659 68.564 16.77H68.559ZM82.865 18.141C82.7342 18.1413 82.6051 18.1109 82.4882 18.0522C82.3713 17.9935 82.2699 17.9081 82.192 17.803L79.197 14.556V20.352C79.2018 20.5242 79.172 20.6957 79.1094 20.8562C79.0468 21.0167 78.9527 21.1631 78.8326 21.2866C78.7124 21.4101 78.5688 21.5083 78.4101 21.5753C78.2513 21.6424 78.0808 21.6769 77.9085 21.6769C77.7362 21.6769 77.5657 21.6424 77.4069 21.5753C77.2482 21.5083 77.1046 21.4101 76.9844 21.2866C76.8643 21.1631 76.7702 21.0167 76.7076 20.8562C76.645 20.6957 76.6152 20.5242 76.62 20.352V8.873C76.6597 8.7778 76.7256 8.69581 76.8101 8.63652C76.8945 8.57723 76.994 8.54307 77.097 8.538C77.319 8.57568 77.5188 8.69521 77.657 8.873L82.445 14.249C82.4938 14.3183 82.5562 14.3769 82.6284 14.4212C82.7007 14.4656 82.7811 14.4948 82.865 14.507C83.0316 14.4747 83.1809 14.383 83.285 14.249L88.071 8.873C88.1373 8.78286 88.2208 8.70681 88.3168 8.6493C88.4128 8.59178 88.5193 8.55395 88.63 8.538C88.7349 8.53541 88.8379 8.56656 88.9237 8.62686C89.0096 8.68717 89.0738 8.77345 89.107 8.873V20.353C89.1102 20.5243 89.0792 20.6946 89.0159 20.8538C88.9525 21.013 88.8581 21.158 88.7381 21.2804C88.6181 21.4027 88.4749 21.4999 88.317 21.5663C88.159 21.6327 87.9894 21.6669 87.818 21.667C87.4733 21.662 87.1445 21.521 86.9033 21.2747C86.662 21.0284 86.5279 20.6968 86.53 20.352V14.556L83.532 17.803C83.3591 17.9958 83.1199 18.1165 82.862 18.141H82.865ZM107.08 14.698H106.799C105.176 14.78 104.869 15.706 104.869 16.76V20.342C104.869 20.6838 104.733 21.0115 104.491 21.2532C104.249 21.4948 103.922 21.6307 103.58 21.631C103.238 21.6305 102.911 21.4943 102.669 21.2525C102.428 21.0106 102.292 20.6828 102.292 20.341V13.438C102.293 13.1743 102.398 12.9215 102.584 12.735C102.77 12.5485 103.023 12.4435 103.287 12.443C103.551 12.4435 103.803 12.5486 103.99 12.7351C104.176 12.9216 104.281 13.1744 104.281 13.438C105.232 12.541 106.016 12.345 106.799 12.316H107.057C107.371 12.3243 107.669 12.4548 107.889 12.6796C108.108 12.9044 108.231 13.2059 108.232 13.52C108.232 13.827 108.112 14.1217 107.897 14.3416C107.683 14.5616 107.392 14.6894 107.085 14.698H107.08ZM117.018 19.736C117.136 19.921 117.204 20.133 117.214 20.352C117.2 20.6894 117.06 21.0092 116.821 21.2479C116.582 21.4867 116.262 21.627 115.925 21.641C115.479 21.641 115.085 21.303 114.778 20.911L111.812 17.463V20.323C111.812 20.6647 111.676 20.9925 111.435 21.2341C111.193 21.4757 110.865 21.6115 110.523 21.6115C110.182 21.6115 109.854 21.4757 109.612 21.2341C109.371 20.9925 109.235 20.6647 109.235 20.323V9.828C109.234 9.57297 109.31 9.32352 109.451 9.11131C109.593 8.8991 109.794 8.73369 110.029 8.63608C110.265 8.53847 110.524 8.51306 110.774 8.56308C111.024 8.61309 111.254 8.73628 111.434 8.917C111.676 9.158 111.812 9.487 111.812 9.827V16.377L114.778 13.103C115.085 12.766 115.451 12.403 115.897 12.403C116.224 12.4174 116.533 12.5556 116.762 12.7896C116.991 13.0236 117.122 13.3358 117.129 13.663C117.13 13.8707 117.072 14.0743 116.961 14.25L114.611 16.827L117.018 19.74V19.736ZM132.584 21.78H131.883C129.924 21.78 128.775 20.911 128.775 17.86V14.698H128.105C127.789 14.698 127.486 14.5725 127.263 14.3492C127.039 14.1258 126.914 13.8229 126.914 13.507C126.914 13.1911 127.039 12.8882 127.263 12.6648C127.486 12.4415 127.789 12.316 128.105 12.316H128.765V9.881C128.759 9.62271 128.831 9.36859 128.972 9.15195C129.113 8.93532 129.315 8.76628 129.554 8.667C129.712 8.601 129.882 8.567 130.053 8.567C130.397 8.57278 130.726 8.71386 130.967 8.95974C131.208 9.20563 131.343 9.53656 131.342 9.881V12.309H132.404C132.715 12.3184 133.01 12.4499 133.225 12.675C133.44 12.9001 133.558 13.2008 133.553 13.512C133.543 13.8162 133.419 14.1055 133.206 14.3234C132.994 14.5413 132.708 14.672 132.404 14.69H131.342V17.35C131.342 19.113 131.424 19.476 132.208 19.476H132.574C132.878 19.4773 133.17 19.599 133.385 19.8145C133.6 20.0299 133.72 20.3217 133.721 20.626C133.714 20.928 133.591 21.2158 133.377 21.4294C133.164 21.6431 132.876 21.7661 132.574 21.773L132.584 21.78ZM145.04 9.518C145.225 9.63711 145.38 9.79791 145.492 9.98754C145.603 10.1772 145.669 10.3903 145.684 10.61C145.682 10.9314 145.556 11.2396 145.331 11.4695C145.106 11.6993 144.801 11.8329 144.48 11.842C144.328 11.8297 144.178 11.8012 144.032 11.757C143.249 11.1683 142.298 10.8452 141.318 10.835C138.937 10.835 137.313 12.765 137.313 15.172C137.313 17.579 138.965 19.484 141.318 19.484C142.448 19.4824 143.532 19.0404 144.341 18.252C144.546 18.108 144.79 18.03 145.04 18.028C145.191 18.0266 145.341 18.0552 145.481 18.1122C145.621 18.1692 145.749 18.2534 145.856 18.36C146.034 18.5377 146.148 18.7694 146.18 19.0189C146.212 19.2683 146.16 19.5213 146.032 19.738C145.934 19.9089 145.795 20.0525 145.627 20.156C144.808 20.8362 143.837 21.3093 142.797 21.5356C141.756 21.7619 140.677 21.7346 139.649 21.456C138.098 21.0366 136.751 20.069 135.859 18.7326C134.966 17.3962 134.589 15.7815 134.796 14.188C135.002 12.5942 135.78 11.1292 136.984 10.0647C138.188 9.00026 139.737 8.40844 141.344 8.399C142.663 8.37387 143.956 8.76545 145.04 9.518ZM98.99 12.402C98.8589 12.402 98.7291 12.4282 98.6083 12.4791C98.4875 12.53 98.3782 12.6046 98.2866 12.6984C98.1951 12.7923 98.1233 12.9035 98.0754 13.0255C98.0276 13.1476 98.0047 13.278 98.008 13.409L97.954 13.719C97.5847 13.2816 97.1263 12.928 96.6095 12.6817C96.0927 12.4355 95.5294 12.3023 94.957 12.291C92.439 12.291 90.62 14.417 90.62 16.991C90.62 19.566 92.41 21.78 94.818 21.78C95.826 21.78 97.421 21.331 97.926 20.352L97.983 20.659C97.9804 20.7908 98.0049 20.9217 98.0549 21.0437C98.1049 21.1657 98.1794 21.2761 98.2738 21.3681C98.3682 21.4602 98.4804 21.5319 98.6036 21.5788C98.7268 21.6257 98.8583 21.6469 98.99 21.641C99.1224 21.6413 99.2536 21.6154 99.3761 21.5648C99.4985 21.5142 99.6097 21.44 99.7034 21.3464C99.797 21.2527 99.8712 21.1415 99.9218 21.0191C99.9724 20.8966 99.9983 20.7654 99.998 20.633V13.417C99.9942 13.1502 99.887 12.8953 99.6989 12.706C99.5109 12.5166 99.2568 12.4077 98.99 12.402ZM95.238 19.484C94.091 19.484 93.194 18.394 93.194 17.048C93.194 15.703 94.117 14.728 95.238 14.728C96.358 14.728 97.367 15.651 97.367 17.048C97.367 18.445 96.386 19.484 95.238 19.484ZM126.425 16.824C126.368 13.94 124.492 12.316 122.002 12.316C118.91 12.316 117.605 14.556 117.605 17.133C117.605 20.409 119.763 21.808 122.366 21.808C123.345 21.808 124.381 21.667 125.164 21.079C125.327 20.9837 125.463 20.8495 125.561 20.6883C125.659 20.5272 125.715 20.3442 125.724 20.156C125.726 19.8789 125.619 19.6121 125.426 19.4131C125.233 19.2141 124.97 19.0988 124.693 19.092C124.456 19.094 124.224 19.162 124.023 19.288C123.492 19.5148 122.919 19.6289 122.342 19.623C121.698 19.623 120.214 19.365 120.214 17.832H125.414C125.68 17.8269 125.934 17.7192 126.122 17.5313C126.311 17.3434 126.419 17.09 126.425 16.824ZM120.208 16.174C120.208 15.084 121.358 14.721 122.056 14.721C122.755 14.721 123.904 15.084 123.932 16.174H120.208ZM155.31 12.402C155.179 12.4021 155.049 12.4283 154.929 12.4791C154.808 12.5299 154.699 12.6044 154.607 12.698C154.515 12.7918 154.444 12.9032 154.396 13.0253C154.349 13.1475 154.326 13.278 154.33 13.409L154.274 13.719C153.905 13.2815 153.447 12.9278 152.931 12.6816C152.414 12.4353 151.851 12.3022 151.279 12.291C148.759 12.291 146.939 14.417 146.939 16.991C146.939 19.566 148.743 21.78 151.137 21.78C152.145 21.78 153.743 21.331 154.245 20.352L154.302 20.659C154.3 20.7906 154.325 20.9212 154.375 21.0429C154.426 21.1646 154.5 21.2748 154.594 21.367C154.688 21.4592 154.8 21.531 154.924 21.5782C155.047 21.6253 155.178 21.6467 155.31 21.641C155.509 21.6409 155.704 21.5818 155.87 21.4711C156.036 21.3604 156.165 21.2031 156.242 21.019C156.292 20.897 156.318 20.766 156.318 20.633V13.417C156.314 13.1504 156.206 12.8957 156.018 12.7065C155.83 12.5173 155.577 12.4082 155.31 12.402ZM151.557 19.484C150.439 19.484 149.514 18.394 149.514 17.048C149.514 15.703 150.411 14.728 151.557 14.728C152.704 14.728 153.686 15.651 153.686 17.048C153.686 18.445 152.712 19.484 151.563 19.484H151.557ZM163.657 12.309C163.096 12.2988 162.539 12.4027 162.019 12.6145C161.499 12.8263 161.028 13.1415 160.634 13.541C160.634 12.899 160.214 12.422 159.655 12.422C159.522 12.4216 159.391 12.4474 159.268 12.4979C159.146 12.5484 159.034 12.6226 158.941 12.7162C158.847 12.8099 158.772 12.9211 158.722 13.0436C158.671 13.1661 158.645 13.2974 158.645 13.43V24.293C158.646 24.6344 158.782 24.9615 159.023 25.2029C159.264 25.4443 159.592 25.5802 159.933 25.581C160.275 25.5807 160.602 25.445 160.844 25.2035C161.085 24.9621 161.221 24.6346 161.222 24.293V21.025C161.92 21.555 163.041 21.78 163.799 21.798C166.235 21.798 168 19.587 168 17.01C168 14.432 166.15 12.309 163.657 12.309ZM163.348 19.476C162.201 19.476 161.222 18.446 161.222 17.041C161.222 15.636 162.201 14.721 163.348 14.721C164.495 14.721 165.392 15.644 165.392 17.041C165.392 18.393 164.498 19.484 163.348 19.484V19.476Z" fill="black"/>
</g>
<defs>
<clipPath id="clip0_106_736">
<rect width="168" height="29" fill="white"/>
</clipPath>
</defs>
</svg>
