<svg xmlns="http://www.w3.org/2000/svg" width="474" height="52" viewBox="0 0 3638 400" fill="none" class="w-[333px] h-[36px] md:w-[474px] md:h-[52px]"><path d="M151.026 261.559L0 0H140.082L199.726 213.406L151.026 261.559Z" fill="url(#paint0_linear_21_81)"></path><path d="M174.008 57.4557L159.234 0H461.286L393.434 117.1L174.008 57.4557Z" fill="url(#paint1_linear_21_81)"></path><path d="M214.5 196.444L182.216 79.3438L299.863 109.987L214.5 196.444Z" fill="url(#paint2_linear_21_81)"></path><path d="M321.751 114.911L161.97 277.428L232.011 400L385.225 131.874L321.751 114.911Z" fill="url(#paint3_linear_21_81)"></path><path d="M790.196 282.099C793.642 282.099 796.149 284.612 796.149 288.369V319.391C796.149 322.524 793.642 325.341 790.196 325.341H641.986C638.852 325.341 637.286 322.837 637.286 319.701V80.625C637.286 77.4917 639.792 74.6716 643.239 74.6716H675.826C679.273 74.6716 682.093 77.4917 682.093 80.625V282.098H790.197L790.196 282.099ZM995.747 117.911L881.687 117.905V180.887H943.101C946.548 180.887 949.368 183.707 949.368 187.157V218.175C949.368 221.935 946.862 224.131 943.101 224.131H881.687V282.1H995.744C999.19 282.1 1002.01 284.917 1002.01 288.363V319.076C1002.01 322.523 999.19 325.34 995.744 325.34H843.147C839.7 325.34 836.88 322.523 836.88 319.076V80.6287C836.88 77.4953 839.387 74.6753 842.837 74.6753H995.748C999.194 74.6753 1002.01 77.4953 1002.01 80.6287V111.963C1002.01 115.409 999.194 117.916 995.748 117.916L995.747 117.911ZM1249.25 210.968V282.098C1249.25 283.661 1248.62 285.541 1247.05 286.795C1223.87 312.176 1190.97 327.526 1153.37 327.526C1084.43 327.526 1026.77 272.068 1026.77 200.626C1026.77 129.497 1084.43 72.4692 1153.37 72.4692C1191.28 72.4692 1224.5 88.1364 1247.99 113.831C1250.81 116.651 1250.5 119.784 1247.68 122.291L1221.67 143.285C1218.54 145.792 1215.72 145.478 1213.21 142.658C1199.74 128.558 1178.75 115.713 1153.68 115.713C1107.62 115.713 1071.59 155.505 1071.59 200.627C1071.59 246.375 1107.62 284.288 1153.68 284.288C1174.05 284.288 1191.59 275.828 1204.75 265.175V247.314H1155.24C1151.17 247.314 1148.98 245.434 1148.98 241.364V211.283C1148.98 207.21 1150.54 204.703 1154.62 204.703H1242.98C1247.05 204.703 1249.25 206.9 1249.25 210.97L1249.25 210.968ZM1526.23 318.444C1528.11 322.204 1526.86 325.334 1522.47 325.334H1485.81C1482.68 325.334 1480.8 323.77 1479.54 321.264L1462.62 285.543H1341.98L1325.06 321.264C1323.81 323.77 1321.62 325.334 1318.8 325.334H1281.82C1278.06 325.334 1275.87 322.204 1277.75 318.444L1395.88 76.2249C1397.13 74.0284 1398.69 73.0884 1400.26 73.0884H1404.02C1405.9 73.0884 1407.15 74.0284 1408.41 76.2249L1526.23 318.444ZM1361.11 244.809H1443.52L1402.47 157.387L1361.11 244.809ZM1758.11 278.339C1761.24 280.846 1761.24 283.979 1758.42 286.799C1735.23 312.18 1702.33 327.53 1664.73 327.53C1595.79 327.53 1538.14 272.073 1538.14 200.631C1538.14 129.501 1595.79 72.474 1664.73 72.474C1702.64 72.474 1735.86 88.1412 1759.36 113.835C1762.18 116.655 1761.86 119.789 1759.04 122.296L1733.04 143.29C1729.9 145.796 1727.08 145.483 1724.58 142.663C1711.1 128.563 1690.11 115.718 1665.04 115.718C1618.98 115.718 1582.95 155.51 1582.95 200.631C1582.95 246.38 1618.98 284.293 1665.04 284.293C1689.8 284.293 1710.48 272.073 1723.64 258.285C1726.46 255.465 1729.28 255.152 1732.41 257.345L1758.11 278.339ZM2007.52 74.6698C2010.97 74.6698 2013.16 78.4299 2010.97 81.8766L1918.22 224.448V319.08C1918.22 322.84 1916.03 325.344 1912.58 325.344H1889.08C1879.37 325.344 1873.73 318.45 1873.73 309.363V224.448L1781.29 81.8766C1779.1 78.4299 1781.29 74.6698 1784.74 74.6698H1824.84C1828.29 74.6698 1829.86 77.4898 1831.74 80.6232L1895.97 179.639L1959.89 80.6232C1962.09 77.4898 1963.65 74.6698 1966.79 74.6698H2007.52H2007.52Z" fill="white"></path><path d="M2318.47 327.53C2284.23 327.53 2252.39 314.178 2230.14 292.267C2219.19 281.311 2210.28 267.959 2203.78 252.21C2197.27 236.119 2193.85 219.001 2193.85 200.856C2193.85 182.368 2197.27 164.907 2204.12 148.816C2210.97 132.725 2219.87 119.031 2231.17 108.075C2254.11 85.8214 2285.95 72.4692 2319.5 72.4692C2345.86 72.4692 2369.83 80.3436 2385.92 91.6416C2394.13 97.1194 2401.32 103.624 2407.83 110.814C2420.5 125.536 2427.34 140.257 2431.11 154.637L2406.12 163.538C2404.06 155.321 2400.64 146.42 2391.39 133.41C2386.6 126.905 2381.47 121.085 2375.3 115.949C2369.14 110.814 2361.27 106.363 2351.34 102.94C2341.41 99.1736 2330.8 97.4618 2318.81 97.4618C2292.79 97.4618 2267.8 108.075 2250.34 125.536C2232.54 143.339 2221.24 169.701 2221.24 199.144C2221.24 218.659 2225.35 236.462 2233.91 252.21C2242.12 267.959 2253.76 280.284 2269.17 289.186C2283.89 298.087 2300.67 302.538 2319.16 302.538C2342.09 302.538 2361.95 294.663 2373.93 285.077C2380.1 280.284 2385.57 274.806 2390.37 267.959C2395.16 261.454 2398.58 255.634 2400.98 250.841C2403.03 246.048 2405.09 240.912 2406.8 235.777L2431.79 244.678C2428.03 258.03 2421.52 271.725 2408.86 287.131C2402.69 294.663 2395.16 301.511 2387.29 307.331C2370.85 318.971 2345.86 327.53 2318.47 327.53V327.53ZM2662.55 324.791L2635.16 261.112H2499.24L2471.85 324.791H2445.15L2552.65 75.2081H2582.43L2690.28 324.791H2662.55ZM2625.23 237.146L2567.03 102.255L2509.17 237.146H2625.23V237.146ZM2805.31 227.218H2752.25V324.791H2725.88V75.2081H2809.42C2870.36 74.8658 2897.07 111.499 2897.07 150.186C2897.07 171.755 2888.85 190.585 2874.13 204.622C2859.06 218.659 2834.76 227.218 2805.31 227.218ZM2807.37 99.8584H2752.25V202.91H2806C2828.25 202.91 2845.71 196.405 2855.64 186.134C2865.57 176.205 2870.36 163.88 2870.36 150.871C2870.36 126.563 2856.32 99.8584 2807.37 99.8584V99.8584ZM2942.94 324.791V75.2081H2969.3V324.791H2942.94ZM3120.29 99.8584V324.791H3094.27V99.8584H3010.73V75.2081H3203.82V99.8584H3120.29V99.8584ZM3429.1 324.791L3401.71 261.112H3265.79L3238.4 324.791H3211.7L3319.2 75.2081H3348.99L3456.83 324.791H3429.1ZM3391.78 237.146L3333.58 102.255L3275.72 237.146H3391.78ZM3492.44 324.791V75.2081H3518.8V300.141H3637.26V324.791H3492.44V324.791Z" fill="white"></path><defs><linearGradient id="paint0_linear_21_81" x1="0" y1="0" x2="199.726" y2="0" gradientUnits="userSpaceOnUse"><stop stop-color="#7D141D"></stop><stop offset="1" stop-color="#FF1E27"></stop></linearGradient><linearGradient id="paint1_linear_21_81" x1="159.234" y1="0" x2="461.286" y2="0" gradientUnits="userSpaceOnUse"><stop stop-color="#7D141D"></stop><stop offset="1" stop-color="#FF1E27"></stop></linearGradient><linearGradient id="paint2_linear_21_81" x1="182.216" y1="79.3438" x2="299.863" y2="79.3438" gradientUnits="userSpaceOnUse"><stop stop-color="#7D141D"></stop><stop offset="1" stop-color="#FF1E27"></stop></linearGradient><linearGradient id="paint3_linear_21_81" x1="161.97" y1="114.911" x2="385.225" y2="114.911" gradientUnits="userSpaceOnUse"><stop stop-color="#7D141D"></stop><stop offset="1" stop-color="#FF1E27"></stop></linearGradient></defs></svg>