<svg width="8" height="9" viewBox="0 0 8 9" fill="none" xmlns="http://www.w3.org/2000/svg">
<path d="M3.99984 7.94841C3.53873 7.94841 3.10539 7.86085 2.69984 7.68574C2.29428 7.51063 1.9415 7.27318 1.6415 6.97341C1.3415 6.67341 1.10406 6.32063 0.929171 5.91507C0.754282 5.50952 0.666726 5.07618 0.666504 4.61507C0.666504 4.15396 0.754059 3.72063 0.929171 3.31507C1.10428 2.90952 1.34173 2.55674 1.6415 2.25674C1.9415 1.95674 2.29428 1.71929 2.69984 1.5444C3.10539 1.36952 3.53873 1.28196 3.99984 1.28174C4.46095 1.28174 4.89428 1.36929 5.29984 1.5444C5.70539 1.71952 6.05817 1.95696 6.35817 2.25674C6.65817 2.55674 6.89573 2.90952 7.07084 3.31507C7.24595 3.72063 7.33339 4.15396 7.33317 4.61507C7.33317 5.07618 7.24562 5.50952 7.0705 5.91507C6.89539 6.32063 6.65795 6.67341 6.35817 6.97341C6.05817 7.27341 5.70539 7.51096 5.29984 7.68607C4.89428 7.86118 4.46095 7.94863 3.99984 7.94841Z" fill="#09CA3B"/>
</svg>
