<svg width="15" height="15" viewBox="0 0 15 15" fill="none" xmlns="http://www.w3.org/2000/svg">
<path d="M1.62624 6.78376L4.07624 4.33376C4.21235 4.19764 4.37276 4.10042 4.55749 4.04209C4.74221 3.98376 4.93179 3.97403 5.12624 4.01292L5.88457 4.17334C5.35957 4.79556 4.94638 5.35945 4.64499 5.86501C4.3436 6.37056 4.05193 6.98306 3.76999 7.70251L1.62624 6.78376ZM4.61582 8.11084C4.83943 7.41084 5.14335 6.74973 5.52757 6.12751C5.91179 5.50528 6.37593 4.92195 6.91999 4.37751C7.77554 3.52195 8.75263 2.88262 9.85124 2.45951C10.9498 2.03639 11.9755 1.90767 12.9283 2.07334C13.0936 3.02612 12.9672 4.05181 12.5492 5.15042C12.1311 6.24903 11.4943 7.22612 10.6387 8.08167C10.104 8.61639 9.52068 9.08073 8.88874 9.47467C8.25679 9.86862 7.59082 10.1772 6.89082 10.4004L4.61582 8.11084ZM8.64082 6.36084C8.86443 6.58445 9.13918 6.69626 9.46507 6.69626C9.79096 6.69626 10.0655 6.58445 10.2887 6.36084C10.5123 6.13723 10.6242 5.86267 10.6242 5.53717C10.6242 5.21167 10.5123 4.93692 10.2887 4.71292C10.0651 4.48931 9.79038 4.37751 9.46449 4.37751C9.1386 4.37751 8.86404 4.48931 8.64082 4.71292C8.41721 4.93653 8.3054 5.21128 8.3054 5.53717C8.3054 5.86306 8.41721 6.13762 8.64082 6.36084ZM8.23249 13.3754L7.29915 11.2317C8.0186 10.9497 8.63363 10.6581 9.14424 10.3567C9.65485 10.0553 10.2211 9.64209 10.8429 9.11709L10.9887 9.87542C11.0276 10.0699 11.0179 10.262 10.9596 10.4518C10.9012 10.6415 10.804 10.8043 10.6679 10.94L8.23249 13.3754ZM2.55957 9.97751C2.89985 9.63723 3.31304 9.46456 3.79915 9.45951C4.28526 9.45445 4.69846 9.62226 5.03874 9.96292C5.37901 10.3032 5.54915 10.7164 5.54915 11.2025C5.54915 11.6886 5.37901 12.1018 5.03874 12.4421C4.79568 12.6851 4.38988 12.8942 3.82132 13.0692C3.25276 13.2442 2.4676 13.3997 1.46582 13.5358C1.60193 12.5344 1.75749 11.7518 1.93249 11.1879C2.10749 10.624 2.31651 10.2206 2.55957 9.97751Z" fill="white"/>
</svg>
