<svg width="15" height="15" viewBox="0 0 15 15" fill="none" xmlns="http://www.w3.org/2000/svg">
<path d="M8.67294 1.46094L8.04294 2.09094L8.97627 3.02427C9.1046 3.1701 9.16877 3.33927 9.16877 3.53177C9.16877 3.72427 9.1046 3.9051 8.97627 4.03344L6.90544 6.13927L7.48877 6.76927L9.60627 4.66344C9.91544 4.31927 10.0671 3.9401 10.0671 3.53177C10.0671 3.12344 9.91544 2.73844 9.60627 2.39427L8.67294 1.46094ZM6.35127 2.63927L5.72127 3.26927L6.0771 3.59594C6.20544 3.72427 6.2696 3.89927 6.2696 4.1151C6.2696 4.33094 6.20544 4.50594 6.0771 4.63427L5.72127 4.96094L6.35127 5.59094L6.67794 5.2351C6.9871 4.89094 7.1446 4.5176 7.1446 4.1151C7.1446 3.6951 6.9871 3.31594 6.67794 2.96594L6.35127 2.63927ZM12.4471 3.56677C12.0446 3.56677 11.6713 3.72427 11.3271 4.03344L8.04294 7.32344L8.67294 7.90677L11.9279 4.66344C12.0738 4.5176 12.2488 4.44177 12.4471 4.44177C12.6454 4.44177 12.8204 4.5176 12.9663 4.66344L13.3221 5.01927L13.9229 4.38927L13.5963 4.03344C13.2521 3.72427 12.8671 3.56677 12.4471 3.56677ZM4.28044 5.28177L1.36377 13.4484L9.53044 10.5318L4.28044 5.28177ZM11.2804 7.06677C10.8721 7.06677 10.4988 7.22427 10.1488 7.53344L9.22127 8.46094L9.85127 9.09094L10.7788 8.16344C10.9246 8.0176 11.0879 7.94177 11.2804 7.94177C11.4729 7.94177 11.6479 8.0176 11.7938 8.16344L12.7388 9.09094L13.3513 8.4901L12.4179 7.53344C12.0738 7.22427 11.6888 7.06677 11.2804 7.06677Z" fill="white"/>
</svg>
