<svg width="15" height="16" viewBox="0 0 15 16" fill="none" xmlns="http://www.w3.org/2000/svg">
<path d="M7.33848 3.95142C8.91985 3.95142 10.3804 4.23511 11.4688 4.71891C12.0118 4.96051 12.4901 5.26373 12.8397 5.63161C13.163 5.97144 13.3973 6.38996 13.4345 6.86949L13.4394 7.00188V9.44226C13.4394 9.97792 13.1929 10.4422 12.8397 10.8125C12.4901 11.1804 12.0124 11.4836 11.4688 11.7252C10.3804 12.209 8.91985 12.4927 7.33848 12.4927C5.75712 12.4927 4.29656 12.209 3.20815 11.7252C2.66517 11.4836 2.18685 11.1804 1.83727 10.8125C1.51392 10.4727 1.27965 10.0542 1.24243 9.57465L1.23755 9.44226V7.00188C1.23755 6.46622 1.48403 6.00194 1.83727 5.63161C2.18685 5.26373 2.66456 4.96051 3.20815 4.71891C4.29656 4.23511 5.75712 3.95142 7.33848 3.95142ZM12.2192 8.88097C11.9904 9.03106 11.7373 9.16528 11.4688 9.28485C10.3804 9.76866 8.91985 10.0524 7.33848 10.0524C5.75712 10.0524 4.29656 9.76866 3.20815 9.28485C2.94758 9.17058 2.69663 9.03552 2.45774 8.88097V9.44226C2.45774 9.58075 2.51875 9.75829 2.7213 9.97182C2.9269 10.1878 3.2533 10.4105 3.70355 10.6106C4.60282 11.0102 5.88768 11.2725 7.33848 11.2725C8.7899 11.2725 10.0741 11.0102 10.9734 10.6106C11.4237 10.4105 11.7501 10.1878 11.9557 9.97182C12.1588 9.75829 12.2192 9.58075 12.2192 9.44226V8.88097Z" fill="black"/>
</svg>
