<svg width="22" height="22" viewBox="0 0 22 22" fill="none" xmlns="http://www.w3.org/2000/svg">
<g clip-path="url(#clip0_30_1140)">
<path d="M10.798 4.80701C13.059 4.80701 15.1472 5.21262 16.7034 5.90434C17.4797 6.24976 18.1636 6.68329 18.6634 7.20927C19.1257 7.69513 19.4607 8.29352 19.5139 8.97913L19.5208 9.16842V12.6576C19.5208 13.4234 19.1684 14.0872 18.6634 14.6167C18.1636 15.1427 17.4806 15.5762 16.7034 15.9216C15.1472 16.6134 13.059 17.019 10.798 17.019C8.53706 17.019 6.44882 16.6134 4.89267 15.9216C4.11634 15.5762 3.43247 15.1427 2.93265 14.6167C2.47034 14.1308 2.13538 13.5324 2.08217 12.8468L2.0752 12.6576V9.16842C2.0752 8.40256 2.4276 7.73875 2.93265 7.20927C3.43247 6.68329 4.11546 6.24976 4.89267 5.90434C6.44882 5.21262 8.53706 4.80701 10.798 4.80701ZM17.7763 11.8551C17.4492 12.0696 17.0872 12.2615 16.7034 12.4325C15.1472 13.1242 13.059 13.5298 10.798 13.5298C8.53706 13.5298 6.44882 13.1242 4.89267 12.4325C4.52012 12.2691 4.16132 12.076 3.81976 11.8551V12.6576C3.81976 12.8556 3.90699 13.1094 4.19659 13.4147C4.49055 13.7235 4.95722 14.0419 5.60096 14.328C6.88671 14.8993 8.72373 15.2744 10.798 15.2744C12.8732 15.2744 14.7093 14.8993 15.9951 14.328C16.6388 14.0419 17.1055 13.7235 17.3995 13.4147C17.6899 13.1094 17.7763 12.8556 17.7763 12.6576V11.8551Z" fill="black"/>
</g>
<defs>
<clipPath id="clip0_30_1140">
<rect width="20.9348" height="20.9348" fill="white" transform="translate(0.330566 0.445679)"/>
</clipPath>
</defs>
</svg>
