<svg width="28" height="26" viewBox="0 0 28 26" fill="none" xmlns="http://www.w3.org/2000/svg">
<path d="M14.2054 0.660064C14.3337 0.405989 14.547 0.28416 14.8453 0.294574C15.1435 0.304989 15.3378 0.441053 15.4282 0.702765L18.5778 8.84644C18.5951 8.92092 18.6374 8.99165 18.7048 9.05864C18.7721 9.12563 18.8452 9.16974 18.9241 9.19096L27.462 12.6749C27.7372 12.7768 27.8699 12.9662 27.8602 13.2428C27.8506 13.5195 27.7046 13.7083 27.4224 13.8093L18.6632 16.6615C18.5824 16.6956 18.5062 16.7391 18.4347 16.792C18.3632 16.8449 18.3159 16.9171 18.2928 17.0087L14.5837 24.8851C14.4747 25.1584 14.271 25.2898 13.9728 25.2793C13.6745 25.2689 13.4706 25.1233 13.3609 24.8424L10.2402 16.7275C10.2037 16.6339 10.1565 16.5583 10.0988 16.5009C10.0411 16.4435 9.96319 16.3946 9.86506 16.3543L1.35599 12.899C1.06161 12.7779 0.919252 12.5791 0.928914 12.3024C0.938576 12.0257 1.09414 11.8464 1.3956 11.7646L10.1259 8.88372C10.226 8.86875 10.307 8.83002 10.3689 8.76754C10.4308 8.70507 10.4829 8.63763 10.5252 8.56524L14.2054 0.660064Z" fill="black"/>
</svg>
