<svg width="1440" height="830" viewBox="0 0 1440 830" fill="none" xmlns="http://www.w3.org/2000/svg">
<path d="M0 0.854492C0 0.854492 431.073 77.7374 710 78.5642C996.692 79.414 1440 0.854492 1440 0.854492V787.172C1440 787.172 1007.14 830.483 721.423 829.946C443.494 829.424 0 787.172 0 787.172V0.854492Z" fill="white"/>
<rect x="36.9399" y="194.723" width="1347.66" height="555.721" rx="20" transform="rotate(-1.98689 36.9399 194.723)" fill="url(#paint0_linear_301_100)"/>
<rect x="41.786" y="202.897" width="1333" height="552.613" rx="22.5" transform="rotate(-2.56871 41.786 202.897)" fill="url(#paint1_linear_301_100)" stroke="#285028" stroke-width="5"/>
<g filter="url(#filter0_d_301_100)">
<mask id="path-4-inside-1_301_100" fill="white">
<rect x="562" y="122.648" width="316" height="92" rx="4"/>
</mask>
<rect x="562" y="122.648" width="316" height="92" rx="4" fill="#EFD912"/>
<rect x="562" y="122.648" width="316" height="92" rx="4" stroke="#285028" stroke-width="10" mask="url(#path-4-inside-1_301_100)"/>
<path d="M649.815 167.945C649.87 168.346 649.897 168.738 649.897 169.121C649.915 169.504 649.925 169.877 649.925 170.242C649.925 172.156 649.624 173.952 649.022 175.629C648.439 177.306 647.628 178.846 646.589 180.25C645.55 181.653 644.319 182.911 642.897 184.023C641.494 185.135 639.962 186.074 638.303 186.84C636.645 187.605 634.904 188.189 633.081 188.59C631.276 189.009 629.462 189.219 627.639 189.219C625.926 189.219 624.276 189.146 622.69 189C621.104 188.854 619.6 188.781 618.178 188.781C617.085 188.781 616.055 188.854 615.089 189C614.122 189.164 613.229 189.483 612.409 189.957C611.734 187.459 611.014 185.199 610.249 183.176C609.501 181.134 608.809 179.393 608.171 177.953C607.423 176.276 606.676 174.772 605.928 173.441C608.098 174.571 610.267 175.465 612.436 176.121C614.624 176.777 616.702 177.288 618.671 177.652C620.639 177.998 622.435 178.226 624.057 178.336C625.68 178.427 627.029 178.472 628.104 178.472C629.307 178.472 630.52 178.399 631.741 178.254C632.962 178.108 634.193 177.88 635.432 177.57C635.122 177.151 634.803 176.777 634.475 176.449C634.147 176.121 633.846 175.857 633.573 175.656C633.245 175.419 632.926 175.219 632.616 175.054C632.087 174.799 631.367 174.553 630.456 174.316C629.563 174.061 628.56 173.788 627.448 173.496C626.354 173.204 625.178 172.885 623.921 172.539C622.681 172.192 621.441 171.791 620.202 171.336C618.981 170.88 617.805 170.36 616.675 169.777C615.563 169.194 614.569 168.528 613.694 167.781C613.001 167.179 612.427 166.532 611.971 165.84C611.516 165.129 611.151 164.409 610.878 163.679C610.622 162.932 610.431 162.194 610.303 161.465C610.194 160.717 610.13 160.006 610.112 159.332C609.474 159.587 608.9 159.833 608.389 160.07C607.879 160.307 607.441 160.508 607.077 160.672L605.983 161.219C606.639 159.25 607.551 157.509 608.717 155.996C609.902 154.483 611.224 153.17 612.682 152.058C614.159 150.946 615.727 150.008 617.385 149.242C619.063 148.476 620.721 147.847 622.362 147.355C626.19 146.207 630.337 145.551 634.803 145.386C636.189 145.386 637.665 145.332 639.233 145.222C640.582 145.131 642.122 144.995 643.854 144.812C645.586 144.612 647.409 144.329 649.323 143.965C648.74 144.84 648.266 145.788 647.901 146.808C647.555 147.829 647.281 148.859 647.081 149.898C646.88 150.937 646.744 151.967 646.671 152.988C646.598 153.991 646.561 154.911 646.561 155.75C646.561 156.315 646.57 156.825 646.589 157.281C646.607 157.737 646.634 158.129 646.671 158.457C646.707 158.84 646.753 159.186 646.807 159.496C643.617 158.056 640.509 157.053 637.483 156.488C634.457 155.905 631.531 155.613 628.706 155.613C627.74 155.613 626.819 155.649 625.944 155.722C625.069 155.777 624.194 155.859 623.319 155.969C623.52 156.844 623.875 157.573 624.385 158.156C624.914 158.739 625.443 159.213 625.971 159.578C626.591 159.997 627.257 160.325 627.967 160.562C629.353 161 630.857 161.538 632.479 162.176C634.102 162.795 635.724 163.57 637.346 164.5C638.969 165.429 640.527 166.523 642.022 167.781C643.517 169.039 644.829 170.497 645.96 172.156C646.652 171.573 647.327 170.935 647.983 170.242C648.639 169.531 649.25 168.765 649.815 167.945ZM683.171 186.484C682.807 186.484 682.442 186.475 682.077 186.457C681.713 186.439 681.348 186.429 680.984 186.429C678.596 186.429 676.272 186.594 674.011 186.922C671.751 187.268 669.536 187.815 667.367 188.562C667.33 188.034 667.312 187.487 667.312 186.922C667.312 186.375 667.312 185.837 667.312 185.308C667.312 180.095 667.658 175.1 668.351 170.324C669.062 165.548 670.174 160.927 671.687 156.461C668.697 156.771 665.735 157.299 662.8 158.047C659.883 158.776 657.04 159.742 654.269 160.945C654.943 158.138 655.281 155.321 655.281 152.496C655.281 151.202 655.208 149.907 655.062 148.613C654.934 147.301 654.725 146.015 654.433 144.758C657.824 145.523 661.26 146.161 664.742 146.672C668.223 147.164 671.769 147.483 675.378 147.629C675.889 146.608 676.417 145.596 676.964 144.594C677.529 143.591 678.122 142.597 678.742 141.613C678.577 143.636 678.468 145.66 678.413 147.683H679.234C681.604 147.683 683.955 147.592 686.288 147.41C688.622 147.228 690.982 146.927 693.37 146.508C692.951 147.291 692.587 148.13 692.277 149.023C691.985 149.916 691.839 151.001 691.839 152.277C691.839 153.006 691.894 153.808 692.003 154.683C692.131 155.54 692.341 156.506 692.632 157.582C690.572 157.108 688.385 156.743 686.07 156.488C683.755 156.215 681.348 156.078 678.851 156.078H678.413C678.559 161.2 678.997 166.286 679.726 171.336C680.473 176.367 681.622 181.416 683.171 186.484ZM743.762 173.769C742.923 174.243 742.076 174.69 741.219 175.109C740.362 175.528 739.496 175.92 738.621 176.285C739.569 178.199 740.572 180.04 741.629 181.808C742.686 183.558 743.807 185.281 744.992 186.976C741.948 186.976 739.049 187.277 736.297 187.879C733.562 188.498 730.865 189.474 728.203 190.804C728.349 190.33 728.449 189.811 728.504 189.246C728.559 188.699 728.586 188.116 728.586 187.496C728.586 186.402 728.477 185.199 728.258 183.886C728.057 182.574 727.757 181.179 727.355 179.703C726.389 179.849 725.423 179.958 724.457 180.031C723.509 180.104 722.57 180.14 721.641 180.14C720.036 180.14 718.478 180.013 716.965 179.758C715.452 179.502 713.984 179.11 712.562 178.582C712.234 180.277 711.924 181.991 711.633 183.722C711.341 185.454 711.059 187.232 710.785 189.054C709.855 188.544 708.826 188.088 707.695 187.687C706.711 187.341 705.544 187.022 704.195 186.73C702.846 186.457 701.342 186.32 699.684 186.32C698.371 186.32 696.986 186.439 695.527 186.676C694.069 186.931 692.565 187.35 691.016 187.933C692.438 186.384 693.759 184.825 694.98 183.258C696.22 181.672 697.341 180.149 698.344 178.691C699.346 177.215 700.24 175.838 701.023 174.562C701.807 173.286 702.464 172.183 702.992 171.254C702.464 170.524 701.962 169.741 701.488 168.902C701.014 168.064 700.586 167.161 700.203 166.195C700.932 166.596 701.661 166.97 702.391 167.316C703.138 167.644 703.876 167.963 704.605 168.273V168.219C705.59 166.195 706.62 164.217 707.695 162.285C708.771 160.353 709.928 158.484 711.168 156.679C710.913 156.06 710.594 155.358 710.211 154.574C709.846 153.79 709.445 152.97 709.008 152.113C708.57 151.256 708.105 150.399 707.613 149.543C707.139 148.686 706.665 147.875 706.191 147.109C707.996 147.62 709.837 148.039 711.715 148.367C713.611 148.677 715.561 148.877 717.566 148.969C718.624 147.948 719.717 147.009 720.848 146.152C721.978 145.295 723.172 144.53 724.43 143.855C723.992 144.676 723.564 145.505 723.145 146.344C722.725 147.182 722.315 148.039 721.914 148.914C722.99 148.859 724.065 148.759 725.141 148.613C726.216 148.467 727.292 148.285 728.367 148.066C729.151 151.183 730.008 154.237 730.938 157.226C731.867 160.216 732.897 163.151 734.027 166.031C734.957 165.502 735.859 164.937 736.734 164.336C737.609 163.716 738.493 163.069 739.387 162.394C739.952 164.564 740.59 166.587 741.301 168.465C742.012 170.342 742.832 172.11 743.762 173.769ZM723.992 170.078C722.37 166.177 720.428 162.157 718.168 158.019C717.475 160.006 716.81 162.048 716.172 164.144C715.552 166.222 714.951 168.401 714.367 170.679C714.841 170.716 715.315 170.743 715.789 170.761C716.263 170.78 716.737 170.789 717.211 170.789C718.359 170.789 719.49 170.734 720.602 170.625C721.732 170.515 722.862 170.333 723.992 170.078ZM776.243 186.484C775.878 186.484 775.514 186.475 775.149 186.457C774.784 186.439 774.42 186.429 774.055 186.429C771.667 186.429 769.343 186.594 767.083 186.922C764.822 187.268 762.607 187.815 760.438 188.562C760.402 188.034 760.383 187.487 760.383 186.922C760.383 186.375 760.383 185.837 760.383 185.308C760.383 180.095 760.73 175.1 761.423 170.324C762.133 165.548 763.245 160.927 764.758 156.461C761.769 156.771 758.807 157.299 755.872 158.047C752.955 158.776 750.111 159.742 747.34 160.945C748.015 158.138 748.352 155.321 748.352 152.496C748.352 151.202 748.279 149.907 748.133 148.613C748.006 147.301 747.796 146.015 747.505 144.758C750.895 145.523 754.331 146.161 757.813 146.672C761.295 147.164 764.84 147.483 768.45 147.629C768.96 146.608 769.489 145.596 770.036 144.594C770.601 143.591 771.193 142.597 771.813 141.613C771.649 143.636 771.54 145.66 771.485 147.683H772.305C774.675 147.683 777.027 147.592 779.36 147.41C781.693 147.228 784.054 146.927 786.442 146.508C786.023 147.291 785.658 148.13 785.348 149.023C785.057 149.916 784.911 151.001 784.911 152.277C784.911 153.006 784.965 153.808 785.075 154.683C785.202 155.54 785.412 156.506 785.704 157.582C783.644 157.108 781.456 156.743 779.141 156.488C776.826 156.215 774.42 156.078 771.923 156.078H771.485C771.631 161.2 772.068 166.286 772.798 171.336C773.545 176.367 774.693 181.416 776.243 186.484ZM833.607 167.945C833.661 168.346 833.689 168.738 833.689 169.121C833.707 169.504 833.716 169.877 833.716 170.242C833.716 172.156 833.415 173.952 832.814 175.629C832.23 177.306 831.419 178.846 830.38 180.25C829.341 181.653 828.111 182.911 826.689 184.023C825.285 185.135 823.754 186.074 822.095 186.84C820.436 187.605 818.695 188.189 816.872 188.59C815.068 189.009 813.254 189.219 811.431 189.219C809.717 189.219 808.068 189.146 806.482 189C804.896 188.854 803.392 188.781 801.97 188.781C800.876 188.781 799.846 188.854 798.88 189C797.914 189.164 797.021 189.483 796.2 189.957C795.526 187.459 794.806 185.199 794.04 183.176C793.293 181.134 792.6 179.393 791.962 177.953C791.215 176.276 790.467 174.772 789.72 173.441C791.889 174.571 794.059 175.465 796.228 176.121C798.415 176.777 800.493 177.288 802.462 177.652C804.431 177.998 806.227 178.226 807.849 178.336C809.471 178.427 810.82 178.472 811.896 178.472C813.099 178.472 814.311 178.399 815.533 178.254C816.754 178.108 817.984 177.88 819.224 177.57C818.914 177.151 818.595 176.777 818.267 176.449C817.939 176.121 817.638 175.857 817.365 175.656C817.036 175.419 816.717 175.219 816.408 175.054C815.879 174.799 815.159 174.553 814.247 174.316C813.354 174.061 812.352 173.788 811.24 173.496C810.146 173.204 808.97 172.885 807.712 172.539C806.473 172.192 805.233 171.791 803.993 171.336C802.772 170.88 801.596 170.36 800.466 169.777C799.354 169.194 798.361 168.528 797.486 167.781C796.793 167.179 796.219 166.532 795.763 165.84C795.307 165.129 794.943 164.409 794.669 163.679C794.414 162.932 794.223 162.194 794.095 161.465C793.986 160.717 793.922 160.006 793.904 159.332C793.266 159.587 792.691 159.833 792.181 160.07C791.671 160.307 791.233 160.508 790.868 160.672L789.775 161.219C790.431 159.25 791.342 157.509 792.509 155.996C793.694 154.483 795.016 153.17 796.474 152.058C797.95 150.946 799.518 150.008 801.177 149.242C802.854 148.476 804.513 147.847 806.154 147.355C809.982 146.207 814.129 145.551 818.595 145.386C819.98 145.386 821.457 145.332 823.025 145.222C824.374 145.131 825.914 144.995 827.646 144.812C829.378 144.612 831.2 144.329 833.115 143.965C832.531 144.84 832.057 145.788 831.693 146.808C831.346 147.829 831.073 148.859 830.872 149.898C830.672 150.937 830.535 151.967 830.462 152.988C830.389 153.991 830.353 154.911 830.353 155.75C830.353 156.315 830.362 156.825 830.38 157.281C830.398 157.737 830.426 158.129 830.462 158.457C830.499 158.84 830.544 159.186 830.599 159.496C827.409 158.056 824.301 157.053 821.275 156.488C818.249 155.905 815.323 155.613 812.497 155.613C811.531 155.613 810.611 155.649 809.736 155.722C808.861 155.777 807.986 155.859 807.111 155.969C807.311 156.844 807.667 157.573 808.177 158.156C808.706 158.739 809.234 159.213 809.763 159.578C810.383 159.997 811.048 160.325 811.759 160.562C813.144 161 814.648 161.538 816.271 162.176C817.893 162.795 819.516 163.57 821.138 164.5C822.76 165.429 824.319 166.523 825.814 167.781C827.309 169.039 828.621 170.497 829.751 172.156C830.444 171.573 831.118 170.935 831.775 170.242C832.431 169.531 833.042 168.765 833.607 167.945Z" fill="#285028"/>
</g>
<defs>
<filter id="filter0_d_301_100" x="554" y="114.648" width="336" height="112" filterUnits="userSpaceOnUse" color-interpolation-filters="sRGB">
<feFlood flood-opacity="0" result="BackgroundImageFix"/>
<feColorMatrix in="SourceAlpha" type="matrix" values="0 0 0 0 0 0 0 0 0 0 0 0 0 0 0 0 0 0 127 0" result="hardAlpha"/>
<feOffset dx="2" dy="2"/>
<feGaussianBlur stdDeviation="5"/>
<feComposite in2="hardAlpha" operator="out"/>
<feColorMatrix type="matrix" values="0 0 0 0 0 0 0 0 0 0 0 0 0 0 0 0 0 0 1 0"/>
<feBlend mode="normal" in2="BackgroundImageFix" result="effect1_dropShadow_301_100"/>
<feBlend mode="normal" in="SourceGraphic" in2="effect1_dropShadow_301_100" result="shape"/>
</filter>
<linearGradient id="paint0_linear_301_100" x1="710.771" y1="194.723" x2="710.771" y2="750.444" gradientUnits="userSpaceOnUse">
<stop stop-color="#2E5E2E"/>
<stop offset="1" stop-color="#076820"/>
</linearGradient>
<linearGradient id="paint1_linear_301_100" x1="708.396" y1="205.282" x2="708.396" y2="752.895" gradientUnits="userSpaceOnUse">
<stop stop-color="#FFE925"/>
<stop offset="1" stop-color="#B2A000"/>
</linearGradient>
</defs>
</svg>
