<svg width="1542" height="718" viewBox="0 0 1542 718" fill="none" xmlns="http://www.w3.org/2000/svg">
<path d="M0 0C0 0 461.607 66.5808 760.292 67.2968C1067.29 68.0327 1542 0 1542 0V680.953C1542 680.953 1078.48 718.461 772.524 717.996C474.908 717.544 0 680.953 0 680.953V0Z" fill="white"/>
<rect width="1304.4" height="435.224" rx="18.0813" transform="matrix(0.999605 -0.0281176 0.0427466 0.999086 109.225 189.01)" fill="url(#paint0_linear_362_11)"/>
<rect x="-2.38386" y="-2.17474" width="1289.71" height="433.486" rx="20.3414" transform="matrix(0.999342 -0.0362572 0.0553884 0.998465 116.562 197.186)" fill="url(#paint1_linear_362_11)" stroke="#285028" stroke-width="4.52032"/>
<g filter="url(#filter0_d_362_11)">
<mask id="path-4-inside-1_362_11" fill="white">
<rect x="617.871" y="132.58" width="305.92" height="72.0288" rx="3.61626"/>
</mask>
<rect x="617.871" y="132.58" width="305.92" height="72.0288" rx="3.61626" fill="#EFD912"/>
<rect x="617.871" y="132.58" width="305.92" height="72.0288" rx="3.61626" stroke="#285028" stroke-width="9.04064" mask="url(#path-4-inside-1_362_11)"/>
<path d="M707.379 168.186C707.428 168.548 707.453 168.903 707.453 169.249C707.47 169.595 707.478 169.933 707.478 170.262C707.478 171.993 707.206 173.616 706.662 175.132C706.135 176.649 705.401 178.041 704.462 179.31C703.523 180.579 702.41 181.716 701.125 182.722C699.856 183.727 698.471 184.576 696.972 185.268C695.472 185.96 693.898 186.487 692.25 186.85C690.618 187.229 688.979 187.418 687.331 187.418C685.781 187.418 684.29 187.353 682.856 187.221C681.422 187.089 680.063 187.023 678.777 187.023C677.789 187.023 676.857 187.089 675.984 187.221C675.11 187.369 674.303 187.657 673.561 188.086C672.952 185.828 672.301 183.785 671.608 181.955C670.933 180.109 670.306 178.536 669.73 177.234C669.054 175.717 668.378 174.358 667.703 173.155C669.664 174.177 671.625 174.984 673.586 175.577C675.564 176.171 677.442 176.632 679.222 176.962C681.002 177.275 682.625 177.481 684.092 177.58C685.559 177.662 686.779 177.703 687.751 177.703C688.839 177.703 689.935 177.637 691.039 177.506C692.143 177.374 693.255 177.168 694.376 176.888C694.096 176.508 693.807 176.171 693.511 175.874C693.214 175.577 692.942 175.338 692.695 175.157C692.398 174.943 692.11 174.762 691.83 174.613C691.352 174.383 690.701 174.16 689.877 173.946C689.069 173.715 688.163 173.468 687.158 173.204C686.169 172.94 685.106 172.652 683.969 172.339C682.848 172.026 681.727 171.663 680.607 171.251C679.502 170.839 678.439 170.37 677.418 169.842C676.412 169.315 675.514 168.713 674.723 168.038C674.097 167.494 673.578 166.909 673.166 166.282C672.754 165.64 672.424 164.989 672.177 164.329C671.946 163.654 671.773 162.986 671.658 162.327C671.559 161.651 671.501 161.009 671.485 160.399C670.908 160.63 670.389 160.852 669.927 161.066C669.466 161.281 669.07 161.462 668.741 161.61L667.752 162.105C668.345 160.325 669.169 158.751 670.224 157.383C671.295 156.015 672.49 154.829 673.809 153.823C675.143 152.818 676.561 151.969 678.06 151.277C679.577 150.585 681.076 150.016 682.56 149.571C686.02 148.533 689.77 147.94 693.807 147.791C695.06 147.791 696.395 147.742 697.812 147.643C699.032 147.561 700.424 147.437 701.99 147.272C703.556 147.091 705.204 146.836 706.934 146.506C706.407 147.297 705.978 148.154 705.649 149.077C705.335 150 705.088 150.931 704.907 151.87C704.726 152.81 704.602 153.741 704.536 154.664C704.47 155.57 704.437 156.402 704.437 157.161C704.437 157.671 704.445 158.133 704.462 158.545C704.478 158.957 704.503 159.311 704.536 159.608C704.569 159.954 704.61 160.267 704.66 160.547C701.776 159.245 698.966 158.339 696.23 157.828C693.494 157.301 690.849 157.037 688.295 157.037C687.421 157.037 686.589 157.07 685.798 157.136C685.007 157.185 684.216 157.259 683.425 157.358C683.606 158.149 683.927 158.809 684.389 159.336C684.867 159.863 685.345 160.292 685.823 160.621C686.383 161 686.985 161.297 687.627 161.511C688.88 161.907 690.239 162.393 691.706 162.97C693.173 163.53 694.64 164.231 696.106 165.071C697.573 165.912 698.982 166.9 700.334 168.038C701.685 169.175 702.872 170.493 703.893 171.993C704.52 171.465 705.129 170.889 705.723 170.262C706.316 169.62 706.868 168.928 707.379 168.186ZM737.535 184.946C737.205 184.946 736.876 184.938 736.546 184.922C736.217 184.905 735.887 184.897 735.557 184.897C733.398 184.897 731.297 185.045 729.254 185.342C727.21 185.655 725.208 186.149 723.247 186.825C723.214 186.347 723.197 185.853 723.197 185.342C723.197 184.848 723.197 184.361 723.197 183.883C723.197 179.17 723.51 174.654 724.136 170.337C724.779 166.019 725.785 161.841 727.152 157.803C724.45 158.083 721.772 158.561 719.118 159.237C716.481 159.896 713.91 160.77 711.405 161.857C712.015 159.319 712.32 156.773 712.32 154.219C712.32 153.049 712.254 151.879 712.122 150.708C712.007 149.522 711.817 148.36 711.554 147.223C714.619 147.915 717.726 148.492 720.873 148.953C724.021 149.398 727.227 149.687 730.49 149.819C730.951 148.896 731.429 147.981 731.923 147.075C732.434 146.168 732.97 145.27 733.53 144.38C733.382 146.209 733.283 148.039 733.234 149.868H733.975C736.118 149.868 738.244 149.786 740.353 149.621C742.463 149.456 744.597 149.184 746.756 148.805C746.377 149.514 746.047 150.272 745.767 151.079C745.503 151.887 745.371 152.867 745.371 154.021C745.371 154.68 745.421 155.405 745.52 156.196C745.635 156.971 745.825 157.844 746.088 158.817C744.226 158.388 742.248 158.059 740.155 157.828C738.062 157.581 735.887 157.457 733.629 157.457H733.234C733.365 162.088 733.761 166.686 734.42 171.251C735.096 175.8 736.134 180.365 737.535 184.946ZM792.313 173.451C791.555 173.88 790.788 174.284 790.014 174.663C789.239 175.042 788.456 175.396 787.665 175.726C788.522 177.456 789.429 179.121 790.384 180.719C791.34 182.301 792.354 183.859 793.425 185.391C790.673 185.391 788.053 185.663 785.564 186.207C783.092 186.767 780.653 187.649 778.247 188.852C778.379 188.424 778.469 187.954 778.519 187.443C778.568 186.949 778.593 186.421 778.593 185.861C778.593 184.872 778.494 183.785 778.296 182.598C778.115 181.411 777.843 180.151 777.48 178.816C776.607 178.948 775.733 179.046 774.86 179.112C774.003 179.178 773.154 179.211 772.314 179.211C770.864 179.211 769.454 179.096 768.087 178.865C766.719 178.634 765.392 178.28 764.107 177.802C763.81 179.335 763.53 180.884 763.266 182.45C763.002 184.015 762.747 185.622 762.5 187.27C761.659 186.809 760.728 186.397 759.706 186.034C758.816 185.721 757.762 185.433 756.542 185.169C755.323 184.922 753.963 184.798 752.463 184.798C751.277 184.798 750.024 184.905 748.706 185.119C747.387 185.35 746.028 185.729 744.627 186.257C745.912 184.856 747.107 183.447 748.211 182.029C749.332 180.596 750.346 179.219 751.252 177.901C752.158 176.566 752.966 175.322 753.675 174.168C754.383 173.015 754.976 172.018 755.454 171.177C754.976 170.518 754.523 169.809 754.095 169.051C753.666 168.293 753.279 167.477 752.933 166.604C753.592 166.966 754.251 167.304 754.911 167.617C755.586 167.914 756.254 168.202 756.913 168.483V168.433C757.803 166.604 758.734 164.816 759.706 163.069C760.679 161.322 761.725 159.633 762.846 158.001C762.615 157.441 762.327 156.806 761.981 156.098C761.651 155.389 761.288 154.647 760.893 153.873C760.497 153.098 760.077 152.324 759.632 151.549C759.204 150.774 758.775 150.041 758.347 149.349C759.978 149.81 761.643 150.189 763.34 150.486C765.054 150.766 766.818 150.947 768.63 151.03C769.586 150.107 770.575 149.258 771.597 148.484C772.619 147.709 773.698 147.017 774.835 146.407C774.44 147.149 774.052 147.899 773.673 148.657C773.294 149.415 772.924 150.189 772.561 150.98C773.533 150.931 774.506 150.84 775.478 150.708C776.45 150.577 777.423 150.412 778.395 150.214C779.104 153.032 779.878 155.793 780.719 158.495C781.559 161.198 782.49 163.852 783.512 166.455C784.353 165.978 785.168 165.467 785.96 164.923C786.751 164.362 787.55 163.777 788.357 163.168C788.868 165.129 789.445 166.958 790.088 168.656C790.731 170.353 791.472 171.952 792.313 173.451ZM774.44 170.114C772.973 166.587 771.218 162.953 769.174 159.212C768.548 161.009 767.947 162.855 767.37 164.75C766.809 166.629 766.266 168.598 765.738 170.658C766.167 170.691 766.595 170.716 767.024 170.732C767.452 170.749 767.881 170.757 768.309 170.757C769.347 170.757 770.369 170.707 771.374 170.609C772.396 170.51 773.418 170.345 774.44 170.114ZM821.678 184.946C821.348 184.946 821.018 184.938 820.689 184.922C820.359 184.905 820.03 184.897 819.7 184.897C817.541 184.897 815.44 185.045 813.396 185.342C811.353 185.655 809.35 186.149 807.389 186.825C807.356 186.347 807.34 185.853 807.34 185.342C807.34 184.848 807.34 184.361 807.34 183.883C807.34 179.17 807.653 174.654 808.279 170.337C808.922 166.019 809.927 161.841 811.295 157.803C808.592 158.083 805.914 158.561 803.261 159.237C800.624 159.896 798.053 160.77 795.548 161.857C796.158 159.319 796.463 156.773 796.463 154.219C796.463 153.049 796.397 151.879 796.265 150.708C796.15 149.522 795.96 148.36 795.696 147.223C798.762 147.915 801.868 148.492 805.016 148.953C808.164 149.398 811.369 149.687 814.632 149.819C815.094 148.896 815.572 147.981 816.066 147.075C816.577 146.168 817.113 145.27 817.673 144.38C817.525 146.209 817.426 148.039 817.376 149.868H818.118C820.26 149.868 822.386 149.786 824.496 149.621C826.605 149.456 828.739 149.184 830.898 148.805C830.519 149.514 830.19 150.272 829.91 151.079C829.646 151.887 829.514 152.867 829.514 154.021C829.514 154.68 829.564 155.405 829.662 156.196C829.778 156.971 829.967 157.844 830.231 158.817C828.369 158.388 826.391 158.059 824.298 157.828C822.205 157.581 820.03 157.457 817.772 157.457H817.376C817.508 162.088 817.904 166.686 818.563 171.251C819.239 175.8 820.277 180.365 821.678 184.946ZM873.538 168.186C873.588 168.548 873.613 168.903 873.613 169.249C873.629 169.595 873.637 169.933 873.637 170.262C873.637 171.993 873.365 173.616 872.821 175.132C872.294 176.649 871.561 178.041 870.621 179.31C869.682 180.579 868.57 181.716 867.284 182.722C866.015 183.727 864.631 184.576 863.131 185.268C861.631 185.96 860.057 186.487 858.409 186.85C856.778 187.229 855.138 187.418 853.49 187.418C851.941 187.418 850.449 187.353 849.016 187.221C847.582 187.089 846.222 187.023 844.937 187.023C843.948 187.023 843.017 187.089 842.143 187.221C841.27 187.369 840.462 187.657 839.721 188.086C839.111 185.828 838.46 183.785 837.768 181.955C837.092 180.109 836.466 178.536 835.889 177.234C835.213 175.717 834.538 174.358 833.862 173.155C835.823 174.177 837.784 174.984 839.745 175.577C841.723 176.171 843.602 176.632 845.382 176.962C847.162 177.275 848.785 177.481 850.252 177.58C851.718 177.662 852.938 177.703 853.91 177.703C854.998 177.703 856.094 177.637 857.198 177.506C858.302 177.374 859.415 177.168 860.535 176.888C860.255 176.508 859.967 176.171 859.67 175.874C859.374 175.577 859.102 175.338 858.854 175.157C858.558 174.943 858.269 174.762 857.989 174.613C857.511 174.383 856.86 174.16 856.036 173.946C855.229 173.715 854.322 173.468 853.317 173.204C852.328 172.94 851.265 172.652 850.128 172.339C849.007 172.026 847.887 171.663 846.766 171.251C845.662 170.839 844.599 170.37 843.577 169.842C842.572 169.315 841.674 168.713 840.883 168.038C840.256 167.494 839.737 166.909 839.325 166.282C838.913 165.64 838.584 164.989 838.336 164.329C838.106 163.654 837.933 162.986 837.817 162.327C837.718 161.651 837.661 161.009 837.644 160.399C837.067 160.63 836.548 160.852 836.087 161.066C835.625 161.281 835.23 161.462 834.9 161.61L833.911 162.105C834.505 160.325 835.329 158.751 836.383 157.383C837.455 156.015 838.649 154.829 839.968 153.823C841.303 152.818 842.72 151.969 844.22 151.277C845.736 150.585 847.236 150.016 848.719 149.571C852.18 148.533 855.929 147.94 859.967 147.791C861.219 147.791 862.554 147.742 863.972 147.643C865.191 147.561 866.584 147.437 868.149 147.272C869.715 147.091 871.363 146.836 873.093 146.506C872.566 147.297 872.138 148.154 871.808 149.077C871.495 150 871.248 150.931 871.066 151.87C870.885 152.81 870.761 153.741 870.695 154.664C870.63 155.57 870.597 156.402 870.597 157.161C870.597 157.671 870.605 158.133 870.621 158.545C870.638 158.957 870.663 159.311 870.695 159.608C870.728 159.954 870.77 160.267 870.819 160.547C867.935 159.245 865.125 158.339 862.389 157.828C859.654 157.301 857.009 157.037 854.454 157.037C853.581 157.037 852.748 157.07 851.957 157.136C851.166 157.185 850.375 157.259 849.584 157.358C849.765 158.149 850.087 158.809 850.548 159.336C851.026 159.863 851.504 160.292 851.982 160.621C852.542 161 853.144 161.297 853.787 161.511C855.039 161.907 856.399 162.393 857.866 162.97C859.332 163.53 860.799 164.231 862.266 165.071C863.733 165.912 865.142 166.9 866.493 168.038C867.844 169.175 869.031 170.493 870.053 171.993C870.679 171.465 871.289 170.889 871.882 170.262C872.475 169.62 873.027 168.928 873.538 168.186Z" fill="#285028"/>
</g>
<defs>
<filter id="filter0_d_362_11" x="610.638" y="125.348" width="324.002" height="90.1101" filterUnits="userSpaceOnUse" color-interpolation-filters="sRGB">
<feFlood flood-opacity="0" result="BackgroundImageFix"/>
<feColorMatrix in="SourceAlpha" type="matrix" values="0 0 0 0 0 0 0 0 0 0 0 0 0 0 0 0 0 0 127 0" result="hardAlpha"/>
<feOffset dx="1.80813" dy="1.80813"/>
<feGaussianBlur stdDeviation="4.52032"/>
<feComposite in2="hardAlpha" operator="out"/>
<feColorMatrix type="matrix" values="0 0 0 0 0 0 0 0 0 0 0 0 0 0 0 0 0 0 1 0"/>
<feBlend mode="normal" in2="BackgroundImageFix" result="effect1_dropShadow_362_11"/>
<feBlend mode="normal" in="SourceGraphic" in2="effect1_dropShadow_362_11" result="shape"/>
</filter>
<linearGradient id="paint0_linear_362_11" x1="652.202" y1="0" x2="652.202" y2="435.224" gradientUnits="userSpaceOnUse">
<stop stop-color="#2E5E2E"/>
<stop offset="1" stop-color="#076820"/>
</linearGradient>
<linearGradient id="paint1_linear_362_11" x1="642.596" y1="0" x2="642.596" y2="428.966" gradientUnits="userSpaceOnUse">
<stop stop-color="#FFE925"/>
<stop offset="1" stop-color="#B2A000"/>
</linearGradient>
</defs>
</svg>
