<svg width="43" height="39" viewBox="0 0 43 39" fill="none" xmlns="http://www.w3.org/2000/svg">
<path d="M38.763 38.5425C39.8839 38.5425 40.9589 38.0973 41.7515 37.3047C42.5441 36.5121 42.9894 35.4371 42.9894 34.3162V23.9954C42.9894 22.8745 42.5441 21.7995 41.7515 21.007C40.9589 20.2144 39.8839 19.7691 38.763 19.7691H32.8968C32.8968 18.2856 32.9856 16.798 33.1589 15.3145C33.4209 13.7423 33.8604 12.3434 34.469 11.122C35.0818 9.89633 35.868 8.93694 36.8316 8.23537C37.7909 7.44927 39.0124 7.05622 40.5 7.05622V0.505371C38.053 0.505371 35.9144 1.02944 34.076 2.07757C32.2535 3.11508 30.6866 4.54767 29.4904 6.27011C28.2898 8.16908 27.4049 10.2501 26.87 12.4321C26.3311 14.8401 26.0674 17.3016 26.0839 19.7691V34.3162C26.0839 35.4371 26.5292 36.5121 27.3218 37.3047C28.1144 38.0973 29.1894 38.5425 30.3103 38.5425H38.763ZM13.4049 38.5425C14.5258 38.5425 15.6008 38.0973 16.3934 37.3047C17.186 36.5121 17.6312 35.4371 17.6312 34.3162V23.9954C17.6312 22.8745 17.186 21.7995 16.3934 21.007C15.6008 20.2144 14.5258 19.7691 13.4049 19.7691H7.53871C7.53871 18.2856 7.62746 16.798 7.80074 15.3145C8.06278 13.7423 8.50232 12.3434 9.11091 11.122C9.72373 9.89633 10.5098 8.93694 11.4734 8.23537C12.4328 7.44927 13.6542 7.05622 15.1419 7.05622V0.505371C12.6949 0.505371 10.5563 1.02944 8.71786 2.07757C6.8954 3.11508 5.32851 4.54767 4.13227 6.27011C2.93167 8.16908 2.04675 10.2501 1.51193 12.4321C0.973013 14.8401 0.709289 17.3016 0.72583 19.7691V34.3162C0.72583 35.4371 1.1711 36.5121 1.9637 37.3047C2.75629 38.0973 3.83128 38.5425 4.95218 38.5425H13.4049Z" fill="white" fill-opacity="0.7"/>
</svg>
